<svg xmlns="http://www.w3.org/2000/svg" viewBox="-5 10 154 154" width="128" height="128">
  <style>
    .glyph { fill: #0a0f1e; }
    @media (prefers-color-scheme: dark) {
      .glyph { fill: #f8fafc; }
    }
  </style>
  <g class="glyph">
    <path d="M22.0183 96.7277C22.2709 91.345 28.2557 88.2543 32.791 91.1644L49.4395 101.847C53.9747 104.758 53.6589 111.486 48.8711 113.958L31.2951 123.035C26.5072 125.508 20.8382 121.87 21.0908 116.487L22.0183 96.7277Z"/>
    <path d="M44.0281 140.28C41.0596 135.783 44.0727 129.759 49.4517 129.436L69.1976 128.254C74.5766 127.932 78.2872 133.553 75.8767 138.373L67.0279 156.064C64.6174 160.884 57.8937 161.286 54.9252 156.789L44.0281 140.28Z"/>
    <path d="M72.624 20.685C73.5494 15.3765 79.8745 13.0604 84.0091 16.5161L99.1872 29.2018C103.322 32.6575 102.165 39.2932 97.105 41.1461L78.5298 47.9478C73.4698 49.8006 68.3015 45.481 69.2269 40.1725L72.624 20.685Z"/>
    <path d="M25.2769 53.6135C20.2384 51.7028 19.1578 45.0543 23.3318 41.6462L38.6542 29.1353C42.8282 25.7273 49.1263 28.1157 49.9908 33.4345L53.1643 52.9596C54.0288 58.2784 48.8113 62.5385 43.7729 60.6278L25.2769 53.6135Z"/>
    <path d="M94.0236 84.7375C89.7323 81.4784 90.5784 74.796 95.5465 72.7092L113.784 65.0485C118.752 62.9617 124.116 67.0356 123.44 72.3815L120.955 92.0062C120.278 97.3521 114.068 99.9606 109.777 96.7015L94.0236 84.7375Z"/>
    <circle cx="63.5783" cy="74.6368" r="15.1701"/>
    <circle cx="90.2775" cy="114.686" r="15.1701"/>
  </g>
</svg>
