<svg width="338" height="127" viewBox="0 0 676 253" fill="none" xmlns="http://www.w3.org/2000/svg"><style>svg{color:#0a0f1e}@media(prefers-color-scheme:dark){svg{color:#f8fafc}}</style>
<path d="M164.354 171V110.57H153.622V94.5742H164.354V89.0371C164.354 80.7884 166.724 74.6133 171.464 70.5117C176.249 66.4102 182.219 64.3594 189.374 64.3594C192.655 64.3594 195.64 64.6328 198.329 65.1797C201.063 65.681 203.069 66.1139 204.345 66.4785L200.585 82.3379C199.765 82.11 198.762 81.8822 197.577 81.6543C196.392 81.4264 195.139 81.3125 193.817 81.3125C190.718 81.3125 188.531 82.0417 187.255 83.5C186.024 84.9128 185.409 86.918 185.409 89.5156V94.5742H200.653V110.57H185.409V171H164.354ZM235.448 172.436C228.157 172.436 222.095 170.544 217.265 166.762C212.479 162.934 210.087 157.237 210.087 149.672C210.087 143.975 211.409 139.509 214.052 136.273C216.741 132.992 220.272 130.6 224.647 129.096C229.022 127.546 233.716 126.544 238.729 126.088C245.383 125.45 250.123 124.789 252.948 124.105C255.819 123.376 257.255 121.781 257.255 119.32V118.979C257.255 115.834 256.252 113.396 254.247 111.664C252.242 109.932 249.348 109.066 245.565 109.066C241.783 109.066 238.684 109.887 236.269 111.527C233.899 113.168 232.326 115.264 231.552 117.816L212.274 114.74C214.097 108.087 217.925 102.914 223.759 99.2227C229.638 95.4857 236.929 93.6172 245.634 93.6172C251.285 93.6172 256.594 94.5059 261.562 96.2832C266.575 98.0605 270.631 100.863 273.729 104.691C276.828 108.474 278.378 113.396 278.378 119.457V171H258.349V160.336H257.733C255.865 163.936 253.085 166.853 249.394 169.086C245.748 171.319 241.099 172.436 235.448 172.436ZM230.253 148.988C230.253 151.905 231.301 154.115 233.397 155.619C235.539 157.077 238.228 157.807 241.464 157.807C246.112 157.807 249.918 156.462 252.88 153.773C255.888 151.085 257.392 147.735 257.392 143.725V135.59C256.571 136.137 255.272 136.638 253.495 137.094C251.763 137.549 249.918 137.937 247.958 138.256C245.998 138.529 244.244 138.78 242.694 139.008C238.957 139.555 235.95 140.626 233.671 142.221C231.392 143.77 230.253 146.026 230.253 148.988ZM295.058 171V158.354L332.382 112.074V111.527H296.22V94.5742H357.88V108.451L322.812 153.5V154.047H359.11V171H295.058ZM410.312 172.504C402.473 172.504 395.728 170.909 390.077 167.719C384.426 164.529 380.074 159.994 377.021 154.115C373.967 148.191 372.44 141.195 372.44 133.129C372.44 125.29 373.944 118.409 376.952 112.484C380.006 106.56 384.289 101.934 389.804 98.6074C395.318 95.2806 401.812 93.6172 409.286 93.6172C416.031 93.6172 422.115 95.0527 427.538 97.9238C433.007 100.795 437.336 105.102 440.526 110.844C443.762 116.586 445.38 123.786 445.38 132.445V138.188H393.29C393.518 143.975 395.204 148.51 398.349 151.791C401.493 155.072 405.595 156.713 410.653 156.713C414.162 156.713 417.17 155.961 419.677 154.457C422.229 152.953 424.052 150.766 425.146 147.895L444.696 149.193C443.192 156.212 439.433 161.863 433.417 166.146C427.447 170.385 419.745 172.504 410.312 172.504ZM393.427 125.131H425.077C424.576 120.3 423.026 116.472 420.429 113.646C417.831 110.821 414.185 109.408 409.491 109.408C404.752 109.408 400.992 110.889 398.212 113.852C395.478 116.768 393.882 120.528 393.427 125.131ZM459.325 171V94.5742H479.833V107.973H480.653C482.021 103.233 484.345 99.6556 487.626 97.2402C490.907 94.7793 494.69 93.5488 498.974 93.5488C500.022 93.5488 501.161 93.6172 502.392 93.7539C503.622 93.8906 504.693 94.0729 505.604 94.3008V113.031C504.602 112.712 503.212 112.462 501.435 112.279C499.703 112.051 498.108 111.938 496.649 111.938C492.001 111.938 488.15 113.419 485.097 116.381C482.043 119.298 480.517 123.103 480.517 127.797V171H459.325ZM531.786 172.299C528.414 172.299 525.565 171.16 523.241 168.881C520.917 166.557 519.755 163.731 519.755 160.404C519.755 157.032 520.917 154.206 523.241 151.928C525.565 149.649 528.414 148.51 531.786 148.51C535.159 148.51 538.007 149.649 540.331 151.928C542.655 154.206 543.817 157.032 543.817 160.404C543.817 163.731 542.655 166.557 540.331 168.881C538.007 171.16 535.159 172.299 531.786 172.299ZM585.722 172.436C578.43 172.436 572.369 170.544 567.538 166.762C562.753 162.934 560.36 157.237 560.36 149.672C560.36 143.975 561.682 139.509 564.325 136.273C567.014 132.992 570.546 130.6 574.921 129.096C579.296 127.546 583.99 126.544 589.003 126.088C595.657 125.45 600.396 124.789 603.222 124.105C606.093 123.376 607.528 121.781 607.528 119.32V118.979C607.528 115.834 606.526 113.396 604.521 111.664C602.515 109.932 599.621 109.066 595.839 109.066C592.056 109.066 588.957 109.887 586.542 111.527C584.172 113.168 582.6 115.264 581.825 117.816L562.548 114.74C564.371 108.087 568.199 102.914 574.032 99.2227C579.911 95.4857 587.203 93.6172 595.907 93.6172C601.558 93.6172 606.868 94.5059 611.835 96.2832C616.848 98.0605 620.904 100.863 624.003 104.691C627.102 108.474 628.651 113.396 628.651 119.457V171H608.622V160.336H608.007C606.138 163.936 603.358 166.853 599.667 169.086C596.021 171.319 591.373 172.436 585.722 172.436ZM580.526 148.988C580.526 151.905 581.575 154.115 583.671 155.619C585.813 157.077 588.502 157.807 591.737 157.807C596.386 157.807 600.191 156.462 603.153 153.773C606.161 151.085 607.665 147.735 607.665 143.725V135.59C606.845 136.137 605.546 136.638 603.769 137.094C602.037 137.549 600.191 137.937 598.231 138.256C596.272 138.529 594.517 138.78 592.968 139.008C589.231 139.555 586.223 140.626 583.944 142.221C581.666 143.77 580.526 146.026 580.526 148.988ZM645.673 171V94.5742H666.864V171H645.673ZM656.269 84.7988C653.124 84.7988 650.412 83.7507 648.134 81.6543C645.901 79.5579 644.784 77.0286 644.784 74.0664C644.784 71.1042 645.901 68.5977 648.134 66.5469C650.412 64.4505 653.124 63.4023 656.269 63.4023C659.413 63.4023 662.102 64.4505 664.335 66.5469C666.614 68.5977 667.753 71.1042 667.753 74.0664C667.753 77.0286 666.614 79.5579 664.335 81.6543C662.102 83.7507 659.413 84.7988 656.269 84.7988Z" fill="currentColor"/>
<path d="M22.0183 131.728C22.2709 126.345 28.2557 123.254 32.791 126.164L49.4395 136.847C53.9747 139.758 53.6589 146.486 48.8711 148.958L31.2951 158.035C26.5072 160.508 20.8382 156.87 21.0908 151.487L22.0183 131.728Z" fill="currentColor"/>
<path d="M44.0281 175.28C41.0596 170.783 44.0727 164.759 49.4517 164.436L69.1976 163.254C74.5766 162.932 78.2872 168.553 75.8767 173.373L67.0279 191.064C64.6174 195.884 57.8937 196.286 54.9252 191.789L44.0281 175.28Z" fill="currentColor"/>
<path d="M72.624 55.685C73.5494 50.3765 79.8745 48.0604 84.0091 51.5161L99.1872 64.2018C103.322 67.6575 102.165 74.2932 97.105 76.1461L78.5298 82.9478C73.4698 84.8006 68.3015 80.481 69.2269 75.1725L72.624 55.685Z" fill="currentColor"/>
<path d="M25.2769 88.6135C20.2384 86.7028 19.1578 80.0543 23.3318 76.6462L38.6542 64.1353C42.8282 60.7273 49.1263 63.1157 49.9908 68.4345L53.1643 87.9596C54.0288 93.2784 48.8113 97.5385 43.7729 95.6278L25.2769 88.6135Z" fill="currentColor"/>
<path d="M94.0236 119.737C89.7323 116.478 90.5784 109.796 95.5465 107.709L113.784 100.049C118.752 97.9617 124.116 102.036 123.44 107.382L120.955 127.006C120.278 132.352 114.068 134.961 109.777 131.702L94.0236 119.737Z" fill="currentColor"/>
<circle cx="63.5783" cy="109.637" r="15.1701" fill="currentColor"/>
<circle cx="90.2775" cy="149.686" r="15.1701" fill="currentColor"/>
</svg>
